# xmcd CD database file
#
# Track frame offsets:
#	210
#	18780
#	38634
#	58183
#	73670
#	91928
#	106238
#	122118
#	138653
#	151168
#	167571
#	180434
#	200318
#	215562
#	232830
#	252833
#	270002
#
# Disc length: 3878 seconds
#
# Revision: 0
# Processed by: cddbd v1.4PL0 Copyright (c) Steve Scherf et al.
# Submitted via: CDex 1.50beta10
#
DISCID=d70f2411
DTITLE=Hot Jazz Ambassadors - Mobile Blues
DYEAR=2000
DGENRE=Jazz
TTITLE0=Cushion Foot Stomp
TTITLE1=Premier Bal
TTITLE2=Do Something
TTITLE3=Willie the Weeper
TTITLE4=Chattanooga Stomp
TTITLE5=Gravier Street Blues
TTITLE6=Idolizing
TTITLE7=Papa De Dada
TTITLE8=Elipithapfi Rag
TTITLE9=Showboat Shuffle
TTITLE10=Hugo
TTITLE11=Wang Wang Blues
TTITLE12=Sugar Blues
TTITLE13=Who's It
TTITLE14=Sobbin' Blues
TTITLE15=Someday Sweetheart
TTITLE16=Mobile Blues
EXTD=YEAR: 2000
EXTT0=
EXTT1=
EXTT2=
EXTT3=
EXTT4=
EXTT5=
EXTT6=
EXTT7=
EXTT8=
EXTT9=
EXTT10=
EXTT11=
EXTT12=
EXTT13=
EXTT14=
EXTT15=
EXTT16=
PLAYORDER=
